<?xml version="1.0" encoding="UTF-8"?>
<svg width="200px" height="33px" viewBox="0 0 200 33" version="1.1" xmlns="http://www.w3.org/2000/svg" xmlns:xlink="http://www.w3.org/1999/xlink">
    <title>archiproducts-logo-svg</title>
    <g id="Page-1" stroke="none" stroke-width="1" fill="none" fill-rule="evenodd">
        <g id="archiproducts-logo-svg" fill-rule="nonzero">
            <path d="M10.4798742,20.6404759 C9.74245283,21.1130116 8.61666667,21.8758402 7.41352201,21.8758402 C6.17169811,21.8758402 5.43396226,21.2219451 5.43396226,19.9503678 C5.43396226,18.4609236 6.48176101,17.6975061 8.42295598,17.6975061 L10.4798742,17.6975061 L10.4798742,20.6404759 Z M9.08238994,7.886429 C5.74433962,7.886429 2.91132076,9.15741747 1.28144654,9.88521073 L2.32893082,13.4096497 C3.99779874,12.8281806 6.2490566,12.0647631 8.15125786,12.0647631 C9.85880503,12.0647631 10.4798742,12.8643936 10.4798742,14.2454932 L10.4798742,14.7901605 L7.76289308,14.7901605 C3.68742138,14.7901605 6.21724894e-15,16.0982452 6.21724894e-15,20.6048518 C6.21724894e-15,24.3836651 2.75597484,25.6917498 5.58930818,25.6917498 C7.95691824,25.6917498 9.54842767,24.6383338 10.4798742,23.8024904 L10.4798742,25.3278532 L15.7194968,25.3278532 L15.7194968,13.881891 C15.7194968,10.1384074 13.8566037,7.886429 9.08238994,7.886429 L9.08238994,7.886429 Z" id="Fill-1" fill="#231F20"></path>
            <path d="M23.7380817,10.6473328 L23.7380817,8.24903021 L18.4978301,8.24903021 L18.4978301,25.3280298 L23.7380817,25.3280298 L23.7380817,14.899565 C24.7472012,13.5917747 26.9591509,12.4641662 29.0170125,12.4641662 L29.0170125,7.88631124 C26.1833647,7.88631124 24.7472012,9.01215324 23.7380817,10.6473328" id="Fill-4" fill="#000000"></path>
            <path d="M38.2549371,12.0647926 C40.2728616,12.0647926 41.7477044,12.9368491 42.6021069,13.4096791 L44.1929874,9.99329039 C43.2231761,9.30318222 41.1659434,7.88645844 37.7502201,7.88645844 C33.5580817,7.88645844 29.2112264,9.92086436 29.2112264,16.9712144 C29.2112264,23.7297994 33.364371,25.6917792 37.5175157,25.6917792 C40.9716037,25.6917792 42.8734905,24.3468927 44.1929874,23.3296897 L42.2527358,19.9138898 C41.2433018,20.5680794 39.8074528,21.5134451 37.9835534,21.5134451 C36.1587107,21.5134451 34.6448742,20.2409846 34.6448742,16.8613977 C34.6448742,13.4096791 36.314371,12.0647926 38.2549371,12.0647926" id="Fill-6" fill="#000000"></path>
            <path d="M63.4738993,8.25091446 L63.4738993,21.6965417 L60.2937107,21.6965417 L60.2911949,13.0457531 C60.2911949,9.55752712 58.2726415,7.886429 55.4389937,7.886429 C52.6443396,7.886429 51.0147798,9.44888808 50.1603773,10.2123055 L50.1603773,0.000235531799 L44.9207547,0.000235531799 L44.9207547,25.3278532 L50.1603773,25.3278532 L50.1603773,13.6640241 C50.7044025,13.3372237 52.1012578,12.6100192 53.2267295,12.6100192 C54.5078616,12.6100192 55.0509434,13.3001274 55.0509434,14.4268527 L55.054088,25.5124512 L68.7141509,25.5124512 L68.7141509,8.25091446 L63.4738993,8.25091446 Z" id="Fill-8" fill="#000000"></path>
            <polygon id="Fill-10" fill="#000000" points="63.4736792 5.99802336 68.7139308 5.99802336 68.7139308 1.09189598 63.4736792 1.09189598"></polygon>
            <path d="M80.4122012,21.6940686 C79.2483647,21.6940686 78.1609434,21.2945478 77.2684905,20.7498805 L77.2684905,13.0827316 C77.928239,12.5736885 78.8989937,11.8826971 80.1791824,11.8826971 C81.6543396,11.8826971 83.1291824,12.428542 83.1291824,16.4991203 C83.1291824,20.8594028 81.9257232,21.6940686 80.4122012,21.6940686 M81.887044,7.88631124 C79.287044,7.88631124 78.1609434,8.75777889 77.2684905,9.52119634 L77.2684905,8.24903021 L72.028239,8.24903021 L72.028239,32.5962467 L77.2684905,32.5962467 L77.2684905,24.4200547 C78.1222641,24.9653108 79.4807547,25.6919264 81.8096855,25.6919264 C85.4577987,25.6919264 88.564088,23.6575205 88.564088,16.5347445 C88.564088,10.0658636 85.341761,7.88631124 81.887044,7.88631124" id="Fill-12" fill="#000000"></path>
            <path d="M95.2702201,10.6473328 L95.2702201,8.24903021 L90.0312264,8.24903021 L90.0312264,25.3280298 L95.2702201,25.3280298 L95.2702201,14.899565 C96.2799685,13.5917747 98.4925471,12.4641662 100.548836,12.4641662 L100.548836,7.88631124 C97.7151886,7.88631124 96.2799685,9.01215324 95.2702201,10.6473328" id="Fill-13" fill="#000000"></path>
            <path d="M109.904371,21.7678195 C107.691792,21.7678195 106.372295,20.3505069 106.372295,16.7889716 C106.372295,13.0454881 107.729842,11.774794 109.904371,11.774794 C112.154685,11.774794 113.436446,13.1182085 113.436446,16.7889716 C113.436446,20.5324552 112.077327,21.7678195 109.904371,21.7678195 M109.904371,7.88645844 C104.818836,7.88645844 100.93739,10.6842818 100.93739,16.7889716 C100.93739,22.8939559 104.896195,25.6917792 109.904371,25.6917792 C114.833616,25.6917792 118.86978,22.8939559 118.86978,16.7889716 C118.86978,10.6842818 114.793993,7.88645844 109.904371,7.88645844" id="Fill-14" fill="#000000"></path>
            <path d="M131.295691,20.31344 C130.559213,20.8949092 129.587201,21.6939508 128.112673,21.6939508 C126.521478,21.6939508 125.435629,20.7497627 125.435629,16.6794788 C125.435629,12.9730915 126.715817,11.8828737 128.539402,11.8828737 C129.898836,11.8828737 130.868962,12.5735707 131.295691,12.8644525 L131.295691,20.31344 Z M131.295691,9.23049122 C130.674622,8.6852351 129.509842,7.88619347 127.142547,7.88619347 C123.999151,7.88619347 120.000723,9.81137152 120.000723,16.7165751 C120.000723,23.5122563 123.066761,25.6918087 126.715817,25.6918087 C129.160786,25.6918087 130.597264,24.5288704 131.295691,23.8749753 L131.295691,25.3279121 L136.536258,25.3279121 L136.536258,1.77635684e-15 L131.295691,1.77635684e-15 L131.295691,9.23049122 Z" id="Fill-15" fill="#000000"></path>
            <path d="M148.774339,19.9139192 C147.998239,20.5324846 146.7561,21.3312318 145.513962,21.3312318 C144.233773,21.3312318 143.883144,20.5324846 143.883144,19.4048761 L143.883144,8.24891244 L138.644151,8.24891244 L138.644151,20.5324846 C138.644151,24.0198273 140.507358,25.6918087 143.418364,25.6918087 C146.252012,25.6918087 147.92088,24.1293496 148.774339,23.3659322 L148.774339,25.3279121 L154.014905,25.3279121 L154.014905,8.24891244 L148.774339,8.24891244 L148.774339,19.9139192 Z" id="Fill-16" fill="#000000"></path>
            <path d="M164.435723,12.0647926 C166.453962,12.0647926 167.92849,12.9368491 168.781949,13.4096791 L170.373144,9.99329039 C169.402704,9.30318222 167.345157,7.88645844 163.930063,7.88645844 C159.738868,7.88645844 155.391383,9.92086436 155.391383,16.9712144 C155.391383,23.7297994 159.544528,25.6917792 163.697673,25.6917792 C167.15239,25.6917792 169.053647,24.3468927 170.373144,23.3296897 L168.432578,19.9138898 C167.42283,20.5680794 165.98761,21.5134451 164.162452,21.5134451 C162.338868,21.5134451 160.824717,20.2409846 160.824717,16.8613977 C160.824717,13.4096791 162.493585,12.0647926 164.435723,12.0647926" id="Fill-17" fill="#000000"></path>
            <path d="M191.434339,14.4268232 C190.271132,14.1362359 189.4161,13.8818615 189.4161,13.0457236 C189.4161,12.210469 190.192201,11.9195872 191.124591,11.9195872 C192.676478,11.9195872 194.345346,12.5737768 195.664842,13.0828199 L196.946603,9.52128466 C195.898805,9.01224156 193.88088,7.88639956 190.890629,7.88639956 C189.877107,7.88639956 188.883081,7.99474419 187.979937,8.25147385 L180.6161,8.25147385 L178.760125,8.24882412 L178.760125,3.52582271 L173.519559,4.61486287 L173.519559,8.24882412 L171.578993,8.24882412 L171.578993,12.0647337 L173.519559,12.0647337 L173.519559,21.3314379 C173.519559,24.0568353 174.878679,25.6917204 177.750063,25.6917204 C179.885283,25.6917204 181.321761,24.9653992 182.252578,24.4201431 L181.165471,21.0043431 C180.661383,21.1862914 180.196603,21.4038639 179.652893,21.4038639 C179.069874,21.4038639 178.760125,21.0770636 178.760125,20.3133517 L178.760125,12.0647337 L180.544088,12.0647337 L184.207924,12.0647337 C184.111698,12.5163659 184.06044,13.0118659 184.06044,13.5547667 C184.06044,17.1160075 186.816415,18.1697179 188.834654,18.7140908 L189.921761,19.0055614 C191.162641,19.3326562 192.017358,19.6594566 192.017358,20.4953 C192.017358,21.2590119 191.511698,21.6585327 190.192201,21.6585327 C188.717673,21.6585327 186.739056,20.8948208 185.185597,20.1684997 L183.711069,23.7297405 C184.953207,24.4563561 187.514842,25.6917204 190.658553,25.6917204 C194.579308,25.6917204 197.373333,24.3468338 197.373333,20.1316978 C197.373333,16.4250161 194.849748,15.3347983 192.676478,14.753918 L191.434339,14.4268232 Z" id="Fill-18" fill="#000000"></path>
            <path d="M196.729685,5.32157603 L196.729685,4.36737783 L197.271824,4.36737783 C197.596037,4.36737783 197.824025,4.57111284 197.824025,4.84756829 C197.824025,5.12107959 197.596037,5.32157603 197.271824,5.32157603 L196.729685,5.32157603 Z M198.234717,4.84756829 C198.234717,4.38651479 197.824025,4.02880087 197.317107,4.02880087 L196.324654,4.02880087 L196.324654,6.75832001 L196.729685,6.75832001 L196.729685,5.64513784 L197.17088,5.64513784 L197.837232,6.75832001 L198.307987,6.75832001 L197.610817,5.59685382 C197.970251,5.49351425 198.234717,5.2470891 198.234717,4.84756829 L198.234717,4.84756829 Z" id="Fill-19" fill="#000000"></path>
            <path d="M197.191415,7.5210603 C195.958081,7.5210603 194.959968,6.56597885 194.959968,5.39685788 C194.959968,4.22832574 195.958081,3.27412754 197.191415,3.27412754 C198.424748,3.27412754 199.431666,4.22832574 199.431666,5.39685788 C199.431666,6.56597885 198.424748,7.5210603 197.191415,7.5210603 M197.191415,2.90875884 C195.724119,2.90875884 194.534497,4.02194101 194.534497,5.39685788 C194.534497,6.77118593 195.724119,7.886429 197.191415,7.886429 C198.659968,7.886429 199.849591,6.77118593 199.849591,5.39685788 C199.849591,4.02194101 198.659968,2.90875884 197.191415,2.90875884" id="Fill-20" fill="#000000"></path>
        </g>
    </g>
</svg>